<svg width="617" height="584" viewBox="0 0 617 584" fill="none" xmlns="http://www.w3.org/2000/svg">
<rect y="173" width="617" height="231" rx="115.5" fill="white"/>
<circle cx="227.5" cy="135.5" r="135.5" fill="white"/>
<circle cx="415.5" cy="173.5" r="94.5" fill="white"/>
<path d="M308 388C337.823 388 362 364.337 362 335.147C362 288.99 308 173 308 173C308 173 254 288.99 254 335.147C254 364.337 278.177 388 308 388Z" fill="#6CDFFF"/>
<path d="M200 584C229.823 584 254 560.337 254 531.147C254 484.99 200 369 200 369C200 369 146 484.99 146 531.147C146 560.337 170.177 584 200 584Z" fill="#6CDFFF"/>
<path d="M429 511C458.823 511 483 487.337 483 458.147C483 411.99 429 296 429 296C429 296 375 411.99 375 458.147C375 487.337 399.177 511 429 511Z" fill="#6CDFFF"/>
</svg>
